<!-- Generated by IcoMoon.io -->
<svg version="1.1" xmlns="http://www.w3.org/2000/svg" width="90" height="90" viewBox="0 0 28 32">
<title>android</title>
<path fill="#073042" d="M11.868 8.414h-4.453c-0.897 0-1.631 0.75-1.631 1.668s0.68 1.668 1.577 1.668h4.545l-0.038-3.335v0z"></path>
<path fill="#4285f4" d="M22.004 23.269h-14.591c-0.897 0-1.631-0.751-1.631-1.668v-11.525c0 0-0.005 1.673 1.738 1.673h12.101c0 0 2.382-0.21 2.382 1.607v9.913z"></path>
<path fill="#3870b2" d="M15.196 17.364c0.349-0.275 0.575-0.706 0.575-1.19 0-0.811-0.631-1.472-1.417-1.501 0.017-0.001 0.033-0.003 0.050-0.003 0.088 0 0.174 0.009 0.258 0.025v-0.954c0-0.077-0.030-0.15-0.083-0.204s-0.125-0.085-0.2-0.085c-0.075 0-0.147 0.030-0.2 0.085s-0.083 0.128-0.083 0.204v0.946c-0.715 0.102-1.268 0.729-1.268 1.488 0 0.506 0.246 0.953 0.621 1.226l-2.689 5.869h1.757l1.241-2.718c0.23-0.499 0.923-0.501 1.156-0.004l1.28 2.721h1.771l-2.771-5.904zM14.3 17.101c-0.5 0-0.906-0.415-0.906-0.926s0.405-0.926 0.906-0.926c0.5 0 0.906 0.415 0.906 0.926s-0.405 0.926-0.906 0.926v0z"></path>
<path fill="#073042" d="M13.814 15.248c0.5 0 0.906 0.415 0.906 0.926s-0.406 0.926-0.906 0.926c-0.5 0-0.906-0.415-0.906-0.926s0.405-0.926 0.906-0.926v0zM14.176 14.695v-0.954c-0-0.077-0.030-0.15-0.083-0.204s-0.125-0.085-0.2-0.085c-0.075 0-0.147 0.030-0.2 0.085s-0.083 0.128-0.083 0.204v0.946c-0.715 0.102-1.268 0.729-1.268 1.488 0 0.506 0.246 0.953 0.621 1.226l-3.395 7.398c-0.246 0.541 0.14 1.16 0.723 1.16 0.152 0 0.301-0.044 0.429-0.128s0.23-0.203 0.294-0.344l2.259-4.935c0.23-0.499 0.923-0.501 1.156-0.004l2.31 4.909c0.065 0.138 0.167 0.255 0.294 0.336s0.274 0.125 0.424 0.125c0.587 0 0.973-0.627 0.718-1.169l-3.465-7.384c0.349-0.275 0.575-0.706 0.575-1.19 0-0.701-0.472-1.291-1.109-1.456z"></path>
<path fill="#fff" d="M10.903 9.233h6.243v1.169h-6.243v-1.169z"></path>
<path fill="#3ddc84" d="M16.24 10.264c-0.234 0-0.425-0.195-0.425-0.434s0.19-0.434 0.425-0.434c0.234 0 0.425 0.195 0.425 0.434s-0.19 0.434-0.425 0.434zM11.547 10.264c-0.234 0-0.425-0.195-0.425-0.434s0.19-0.434 0.425-0.434c0.234 0 0.425 0.195 0.425 0.434s-0.19 0.434-0.425 0.434zM16.392 7.649l0.849-1.503c0.023-0.041 0.030-0.091 0.018-0.137s-0.042-0.086-0.082-0.11c-0.041-0.024-0.089-0.030-0.134-0.018s-0.084 0.043-0.107 0.084l-0.859 1.522c-0.657-0.307-1.395-0.478-2.182-0.478s-1.525 0.171-2.182 0.478l-0.859-1.522c-0.023-0.041-0.062-0.072-0.107-0.084s-0.093-0.006-0.134 0.018c-0.041 0.024-0.070 0.063-0.082 0.11s-0.006 0.096 0.018 0.137l0.849 1.503c-1.457 0.81-2.454 2.319-2.6 4.101h10.197c-0.146-1.782-1.143-3.291-2.6-4.101z"></path>
<path fill="#073042" d="M20.537 14.95h-0.674c-0.045 0-0.081 0.037-0.081 0.083l-0.016 10.815c0 0.046 0.037 0.083 0.081 0.083l0.69 0.004c0.807 0 1.468-0.675 1.468-1.501v-10.987c0 0.825-0.66 1.502-1.467 1.502l-0 0z"></path>
</svg>
