<!-- Generated by IcoMoon.io -->
<svg version="1.1" xmlns="http://www.w3.org/2000/svg" width="80" height="80" viewBox="0 0 28 32">
<title>cpp</title>
<path fill="#5c8dbc" d="M28.295 9.35c-0-0.535-0.114-1.007-0.346-1.413-0.227-0.399-0.567-0.733-1.024-0.997-3.767-2.172-7.538-4.338-11.303-6.512-1.015-0.586-2-0.565-3.007 0.030-1.499 0.884-9.006 5.185-11.243 6.481-0.921 0.533-1.369 1.349-1.37 2.41-0.001 4.368 0 8.736-0.001 13.104 0 0.523 0.11 0.986 0.331 1.386 0.227 0.411 0.572 0.754 1.039 1.025 2.237 1.296 9.745 5.596 11.244 6.481 1.008 0.595 1.992 0.616 3.008 0.030 3.766-2.174 7.537-4.34 11.304-6.512 0.467-0.27 0.812-0.614 1.039-1.024 0.221-0.399 0.331-0.863 0.331-1.386 0 0 0-8.734-0.001-13.102z"></path>
<path fill="#1a4674" d="M14.191 15.859l-13.861 7.981c0.227 0.411 0.572 0.754 1.039 1.025 2.237 1.296 9.745 5.596 11.244 6.481 1.008 0.595 1.992 0.616 3.008 0.030 3.766-2.174 7.537-4.34 11.304-6.512 0.467-0.27 0.812-0.614 1.039-1.024l-13.774-7.979z"></path>
<path fill="#1a4674" d="M10.086 18.223c0.807 1.408 2.323 2.358 4.062 2.358 1.75 0 3.275-0.962 4.077-2.385l-4.034-2.337-4.105 2.364z"></path>
<path fill="#1b598e" d="M28.295 9.35c-0-0.535-0.114-1.007-0.346-1.413l-13.757 7.921 13.774 7.979c0.221-0.399 0.331-0.863 0.331-1.386 0 0 0-8.734-0.001-13.102z"></path>
<path fill="#fff" d="M27.537 16.429h-1.076v1.077h-1.077v-1.077h-1.076v-1.076h1.076v-1.076h1.077v1.076h1.076v1.076z"></path>
<path fill="#fff" d="M23.61 16.429h-1.076v1.077h-1.076v-1.077h-1.076v-1.076h1.076v-1.076h1.076v1.076h1.076v1.076z"></path>
<path fill="#fff" d="M18.225 18.195c-0.802 1.423-2.327 2.385-4.077 2.385-1.739 0-3.255-0.95-4.062-2.358-0.392-0.684-0.617-1.476-0.617-2.321 0-2.584 2.095-4.679 4.679-4.679 1.728 0 3.236 0.938 4.047 2.332l4.090-2.355c-1.626-2.806-4.661-4.694-8.137-4.694-5.19 0-9.397 4.207-9.397 9.397 0 1.703 0.453 3.299 1.245 4.676 1.621 2.821 4.665 4.72 8.152 4.72 3.494 0 6.542-1.907 8.161-4.736l-4.084-2.366z"></path>
</svg>
