<!-- Generated by IcoMoon.io -->
<svg version="1.1" xmlns="http://www.w3.org/2000/svg" width="80" height="80" viewBox="0 0 20 32">
<title>figma</title>
<path fill="#0acf83" d="M5.121 32c2.826 0 5.119-2.389 5.119-5.333v-5.333h-5.119c-2.826 0-5.119 2.389-5.119 5.333s2.293 5.333 5.119 5.333z"></path>
<path fill="#a259ff" d="M0.002 16c0-2.944 2.293-5.333 5.119-5.333h5.119v10.667h-5.119c-2.826 0-5.119-2.389-5.119-5.333z"></path>
<path fill="#f24e1e" d="M0.002 5.333c0-2.944 2.293-5.333 5.119-5.333h5.119v10.667h-5.119c-2.826 0-5.119-2.389-5.119-5.333z"></path>
<path fill="#ff7262" d="M10.24 0h5.119c2.826 0 5.119 2.389 5.119 5.333s-2.293 5.333-5.119 5.333h-5.119v-10.667z"></path>
<path fill="#1abcfe" d="M20.478 16c0 2.944-2.293 5.333-5.119 5.333s-5.119-2.389-5.119-5.333c0-2.944 2.293-5.333 5.119-5.333s5.119 2.389 5.119 5.333z"></path>
</svg>
