<!-- Generated by IcoMoon.io -->
<svg version="1.1" xmlns="http://www.w3.org/2000/svg" width="80" height="80" viewBox="0 0 32 32">
<title>html</title>
<path fill="#fc490b" d="M2.015 1.059l2.077 26.57c0.031 0.399 0.301 0.739 0.683 0.86l10.928 3.465c0.193 0.061 0.401 0.061 0.594 0l10.928-3.465c0.381-0.121 0.652-0.461 0.683-0.86l2.077-26.57c0.045-0.571-0.407-1.059-0.98-1.059h-26.011c-0.573 0-1.024 0.488-0.98 1.059zM24.659 9.303h-13.535l0.408 3.767h12.832l-0.839 10.739-7.525 2.386-7.525-2.386-0.439-5.61h3.95v2.752l4.12 1.106 4.095-1.106 0.318-4.386h-12.61l-0.837-10.711h17.857l-0.27 3.449z"></path>
</svg>
