<!-- Generated by IcoMoon.io -->
<svg version="1.1" xmlns="http://www.w3.org/2000/svg" width="80" height="80" viewBox="0 0 31 32">
<title>illustrator</title>
<path fill="#ff7c00" d="M0 0v32h31.36v-32h-31.36zM1.307 1.368h28.747v29.265h-28.747v-29.265zM10.884 18.119l-1.032 4.103c-0.026 0.109-0.065 0.137-0.196 0.137h-1.921c-0.131 0-0.157-0.041-0.131-0.205l3.711-13.593c0.065-0.246 0.104-0.465 0.131-1.135 0-0.096 0.039-0.137 0.104-0.137h2.744c0.092 0 0.131 0.027 0.157 0.137l4.155 14.755c0.026 0.109 0 0.178-0.104 0.178h-2.169c-0.104 0-0.17-0.027-0.196-0.123l-1.084-4.116h-4.168zM14.517 15.904l-1.555-6.427h-0.026c-0.274 1.6-0.967 4.308-1.516 6.427h3.096zM20.397 8.3c0-0.875 0.588-1.395 1.333-1.395 0.797 0 1.333 0.561 1.333 1.395 0 0.903-0.562 1.395-1.359 1.395-0.758 0-1.307-0.492-1.307-1.395v0zM20.554 11.405c0-0.109 0.039-0.164 0.157-0.164h2.052c0.104 0 0.157 0.041 0.157 0.164v10.79c0 0.109-0.026 0.164-0.157 0.164h-2.025c-0.131 0-0.17-0.068-0.17-0.178v-10.775l-0.013-0.001z"></path>
</svg>
