<!-- Generated by IcoMoon.io -->
<svg version="1.1" xmlns="http://www.w3.org/2000/svg" width="80" height="80" viewBox="0 0 31 32">
<title>javascript</title>
<path fill="#f0db4f" d="M0 0h31.39v32h-31.39v-32z"></path>
<path fill="#323330" d="M28.821 24.368c-0.23-1.46-1.164-2.686-3.93-3.83-0.961-0.45-2.032-0.773-2.351-1.515-0.113-0.432-0.128-0.675-0.057-0.937 0.206-0.849 1.2-1.113 1.987-0.87 0.507 0.173 0.988 0.572 1.277 1.208 1.355-0.894 1.352-0.888 2.298-1.503-0.346-0.548-0.531-0.8-0.758-1.034-0.815-0.928-1.925-1.405-3.7-1.369-0.307 0.040-0.618 0.082-0.925 0.122-0.886 0.228-1.731 0.703-2.226 1.338-1.486 1.719-1.062 4.727 0.746 5.965 1.781 1.363 4.398 1.673 4.732 2.948 0.325 1.56-1.125 2.065-2.566 1.886-1.062-0.225-1.653-0.776-2.292-1.776-1.176 0.694-1.176 0.694-2.384 1.402 0.286 0.639 0.588 0.928 1.068 1.481 2.274 2.351 7.964 2.236 8.984-1.323 0.042-0.122 0.316-0.937 0.095-2.193v0zM17.065 14.707h-2.936c0 2.586-0.012 5.153-0.012 7.738 0 1.646 0.084 3.154-0.179 3.617-0.43 0.909-1.543 0.797-2.050 0.62-0.516-0.259-0.779-0.627-1.083-1.147-0.084-0.149-0.146-0.265-0.167-0.274-0.797 0.496-1.59 0.995-2.387 1.491 0.397 0.83 0.982 1.551 1.731 2.020 1.119 0.684 2.623 0.894 4.195 0.526 1.023-0.304 1.907-0.934 2.369-1.892 0.668-1.256 0.525-2.777 0.519-4.459 0.015-2.744 0-5.487 0-8.24z"></path>
</svg>
