<!-- Generated by IcoMoon.io -->
<svg version="1.1" xmlns="http://www.w3.org/2000/svg" width="80" height="80" viewBox="0 0 23 32">
<title>java</title>
<path fill="#5382a1" d="M7.419 24.667c-4.457 1.387 2.711 4.252 8.385 1.544-0.929-0.402-1.595-0.867-1.595-0.867-2.531 0.534-3.705 0.575-6.002 0.284-1.896-0.243-0.788-0.96-0.788-0.96zM6.454 22c-5.453 1.851 3.034 3.951 10.654 1.672-0.81-0.292-1.325-0.826-1.325-0.826-3.724 0.733-5.876 0.71-8.601 0.422-2.107-0.223-0.727-1.268-0.727-1.268zM21.707 27.545c0 0 0.904 0.584-0.995 1.036-3.612 0.858-15.033 1.118-18.205 0.034-1.14-0.389 0.998-0.929 1.671-1.043 0.702-0.119 1.103-0.097 1.103-0.097-1.268-0.701-8.198 1.376-3.52 1.971 12.758 1.623 23.256-0.731 19.947-1.902zM8.235 18.005c0 0-5.66 1.308-2.004 1.783 1.544 0.201 4.621 0.156 7.487-0.078 2.343-0.192 4.695-0.601 4.695-0.601s-0.826 0.344-1.424 0.741c-5.748 1.471-16.852 0.787-13.655-0.718 2.704-1.271 4.902-1.127 4.902-1.127zM18.52 23.167c-0.025 0.079-0.108 0.167-0.108 0.166 7.195-2.231 4.55-7.865 1.11-6.438-0.302 0.127-0.46 0.419-0.46 0.419s0.19-0.091 0.616-0.195c1.739-0.428 4.23 2.746-1.158 6.048zM7.991 31.912c5.826 0.324 14.772-0.18 14.984-2.578 0 0-0.407 0.909-4.815 1.631-4.973 0.814-11.105 0.719-14.743 0.197 0-0 0.745 0.536 4.574 0.75z"></path>
<path fill="#e76f00" d="M13.838 15.811c-4.778-6.29 5.226-9.144 5.226-9.144-6.374 4.223-5.196 5.448-3.661 7.913 1.644 2.643-1.936 4.754-1.936 4.754s1.78-1.668 0.37-3.522zM14.928 0c0 0 3.416 3.41-3.239 8.654-5.337 4.207-1.217 6.605-0.002 9.346-3.115-2.805-5.401-5.275-3.867-7.573 2.251-3.374 8.487-5.010 7.109-10.427z"></path>
</svg>
