<!-- Generated by IcoMoon.io -->
<svg version="1.1" xmlns="http://www.w3.org/2000/svg" width="80" height="80" viewBox="0 0 32 32">
<title>mongo</title>
<path fill="#000" d="M15.874 0c-7.97 0-14.431 2.265-14.431 5.059s6.461 5.059 14.431 5.059c2.735 0 5.292-0.267 7.471-0.73 0.396-0.465 0.838-0.921 1.335-1.357-0.015 0.012 0.077-0.081 0.108-0.181 0.051-0.16 0.080-0.303 0.080-0.303 0.064-0.336 0.247-0.638 0.515-0.851s0.602-0.323 0.944-0.31c0.263 0.010 0.519 0.093 0.738 0.24s0.394 0.351 0.504 0.591c0 0 0.149 0.306 0.32 0.644 1.526-0.802 2.415-1.766 2.415-2.802-0.006-0.103-0.020-0.206-0.044-0.309-0.023-0.13-0.060-0.26-0.111-0.39-0.993-2.498-7.082-4.358-14.276-4.361zM24.865 7.871c-0.111 0.094-0.16 0.138-0.177 0.153 0.058-0.051 0.117-0.102 0.177-0.153zM1.443 7.935v4.366c0.024 2.788 6.477 5.043 14.43 5.043 1.329 0 2.615-0.064 3.838-0.182 0.133-0.948 0.372-1.888 0.745-2.786 0.407-0.978 0.918-2.131 1.655-3.302-1.913 0.308-4.017 0.475-6.237 0.475-4.12 0-7.851-0.572-10.676-1.562-1.413-0.495-2.604-1.088-3.531-1.856-0.076-0.063-0.15-0.129-0.223-0.196zM30.305 7.935c-0.073 0.067-0.147 0.133-0.223 0.196-0.426 0.353-0.909 0.669-1.443 0.956 0.445 0.526 1.071 1.108 1.666 1.904v-3.056zM26.168 10.558c-1.554 1.52-2.404 3.306-3.075 4.919-0.163 0.391-0.289 0.817-0.383 1.265 0.732-0.138 1.424-0.299 2.074-0.478l0.027-1.095c0.010-0.368 0.16-0.717 0.421-0.977s0.611-0.408 0.978-0.416 0.723 0.127 0.994 0.375c0.271 0.248 0.436 0.591 0.461 0.958l0.006 0.091c0.51-0.253 0.955-0.524 1.327-0.808-0.233-0.497-0.491-0.97-0.784-1.41-0.439-0.661-1.275-1.363-2.045-2.424zM1.443 15.163v4.379c0.024 2.788 6.477 5.043 14.43 5.043 1.598 0 3.134-0.092 4.571-0.26-0.008-0.022-0.016-0.044-0.024-0.067-0.532-1.591-0.902-3.592-0.834-5.644-1.19 0.106-2.433 0.161-3.713 0.161-4.12 0-7.851-0.572-10.676-1.562-1.413-0.495-2.604-1.088-3.531-1.856-0.076-0.063-0.149-0.128-0.222-0.194zM29.559 15.752c-0.529 0.367-1.126 0.69-1.786 0.981l0.363 5.461c1.373-0.774 2.168-1.688 2.168-2.667v0.762c0-0.009 0.001-0.017 0.002-0.026v-1.009c-0.054-1.070-0.264-2.118-0.621-3.152-0.041-0.118-0.083-0.234-0.125-0.35zM24.747 17.756c-0.707 0.182-1.454 0.342-2.236 0.478-0.117 1.816 0.162 3.751 0.618 5.115 0.054 0.16 0.129 0.33 0.221 0.506 0.434-0.092 0.852-0.193 1.254-0.3l0.143-5.798zM1.443 22.404v4.324c-0.001 0.004-0.001 0.007-0.002 0.011 0 2.794 6.461 5.059 14.431 5.059 3.325 0 6.385-0.395 8.825-1.058-0.002-0.038-0.003-0.071-0.005-0.11-0.016-0.287-0.057-0.584-0.091-0.807-0.691-0.568-2.432-2.093-3.547-4.128-1.622 0.21-3.364 0.321-5.183 0.321-4.12 0-7.851-0.572-10.676-1.562-1.413-0.495-2.604-1.088-3.531-1.856-0.076-0.063-0.149-0.128-0.222-0.194zM29.929 22.72c-0.495 0.388-1.060 0.731-1.689 1.038l0.131 1.972c0.356-0.465 0.692-0.945 0.891-1.357 0.293-0.607 0.533-1.149 0.666-1.653zM24.566 25.042c-0.121 0.030-0.242 0.061-0.365 0.090 0.114 0.147 0.232 0.294 0.352 0.439l0.013-0.529z"></path>
<path fill="#99b000" d="M26.271 7.816c0 0-0.168 0.88-0.485 1.148-2.179 1.843-3.246 4.12-4.012 5.962-1.163 2.798-0.804 6.473 0 8.877 0.828 2.474 4.006 5.14 4.123 5.237l0.342-13.837 0.919 13.814-1.252 0.034c0.243 0.664 0.243 2.5 0.243 2.5l0.655 0.25c0.014-1.2 0.014-2.232 0.373-2.811l0.109-0.108c0 0 1.285-1.105 1.896-1.855 0.497-0.611 1.024-1.322 1.367-2.032 0.318-0.658 0.623-1.321 0.794-2.032 0.288-1.2 0.447-2.432 0.397-3.666-0.051-1.253-0.294-2.476-0.706-3.666-0.418-1.207-0.924-2.382-1.631-3.445-0.648-0.974-1.598-1.722-2.249-2.694-0.351-0.525-0.882-1.678-0.882-1.678v0z"></path>
</svg>
