<!-- Generated by IcoMoon.io -->
<svg version="1.1" xmlns="http://www.w3.org/2000/svg" width="80" height="80" viewBox="0 0 31 32">
<title>python</title>
<path fill="#3c78aa" d="M12.297 0c-2.472 0-4.474 2.047-4.474 4.575v2.688h6.711c0.61 0 1.112 0.913 1.112 1.538h-11.172c-2.472 0-4.474 2.047-4.474 4.575v6.050c0 2.528 2.002 4.575 4.474 4.575h1.846v-4.288c0-2.528 1.99-4.575 4.462-4.575h8.214c2.472 0 4.474-2.035 4.474-4.563v-6c0-2.528-2.002-4.575-4.474-4.575l-6.699 0zM11.172 2.575c0.626 0 1.125 0.194 1.125 1.138s-0.499 1.425-1.125 1.425c-0.61 0-1.112-0.481-1.112-1.425s0.502-1.138 1.112-1.138z"></path>
<path fill="#fdd835" d="M24.97 8v4.288c0 2.528-1.986 4.575-4.459 4.575h-8.214c-2.472 0-4.474 2.031-4.474 4.559v6c-0.001 1.214 0.471 2.378 1.31 3.237s1.977 1.341 3.164 1.341h6.698c1.187-0 2.325-0.483 3.164-1.341s1.31-2.023 1.31-3.237v-2.688h-6.714c-0.61 0-1.109-0.91-1.109-1.534h11.172c1.187-0 2.325-0.483 3.164-1.341s1.31-2.023 1.31-3.237v-6.047c-0-2.527-2.003-4.575-4.474-4.575l-1.849-0zM9.889 15.222l-0.006 0.006c0.019-0.004 0.039-0.003 0.058-0.006h-0.052zM20.12 26.863c0.61 0 1.112 0.481 1.112 1.425-0.001 0.627-0.499 1.135-1.112 1.134-0.626 0-1.125-0.19-1.125-1.134s0.499-1.425 1.125-1.425z"></path>
</svg>
