<!-- Generated by IcoMoon.io -->
<svg version="1.1" xmlns="http://www.w3.org/2000/svg" width="80" height="80" viewBox="0 0 31 32">
<title>react</title>
<path fill="#257bc2" d="M25.784 10.372c-0.325-0.128-0.662-0.25-1.010-0.365 0.057-0.267 0.109-0.531 0.156-0.79 0.764-4.254 0.265-7.682-1.442-8.81-1.636-1.082-4.312 0.046-7.014 2.743-0.26 0.259-0.52 0.534-0.781 0.822-0.174-0.19-0.347-0.374-0.52-0.55-2.832-2.884-5.67-4.099-7.375-2.967-1.634 1.085-2.118 4.307-1.431 8.339 0.066 0.389 0.144 0.787 0.232 1.191-0.402 0.131-0.79 0.27-1.161 0.419-3.32 1.328-5.441 3.408-5.441 5.566 0 2.229 2.276 4.465 5.734 5.82 0.273 0.107 0.556 0.208 0.848 0.304-0.095 0.437-0.177 0.866-0.246 1.284-0.656 3.962-0.144 7.108 1.486 8.186 1.684 1.114 4.509-0.031 7.261-2.79 0.217-0.218 0.436-0.449 0.654-0.692 0.283 0.313 0.566 0.609 0.848 0.887 2.665 2.63 5.297 3.692 6.926 2.611 1.682-1.117 2.229-4.496 1.519-8.608-0.054-0.314-0.117-0.635-0.188-0.961 0.198-0.067 0.393-0.137 0.583-0.209 3.595-1.366 5.934-3.575 5.934-5.833 0-2.166-2.189-4.261-5.576-5.598zM25.004 20.345c-0.171 0.065-0.347 0.128-0.527 0.189-0.397-1.441-0.933-2.973-1.588-4.556 0.626-1.545 1.14-3.058 1.526-4.49 0.321 0.106 0.632 0.219 0.932 0.337 2.902 1.146 4.672 2.84 4.672 4.145 0 1.39-1.912 3.195-5.016 4.375zM23.716 23.272c0.314 1.818 0.359 3.462 0.151 4.747-0.187 1.155-0.562 1.924-1.027 2.233-0.988 0.656-3.102-0.197-5.381-2.446-0.261-0.258-0.524-0.533-0.788-0.825 0.884-1.108 1.767-2.397 2.629-3.828 1.516-0.154 2.948-0.407 4.247-0.751 0.064 0.296 0.121 0.586 0.17 0.87zM10.691 30.138c-0.966 0.391-1.735 0.402-2.2 0.095-0.989-0.654-1.4-3.18-0.84-6.568 0.064-0.388 0.141-0.787 0.229-1.194 1.285 0.326 2.706 0.56 4.226 0.702 0.868 1.4 1.776 2.687 2.692 3.814-0.2 0.222-0.399 0.432-0.598 0.631-1.217 1.22-2.436 2.085-3.511 2.52zM6.168 20.336c-1.529-0.599-2.792-1.378-3.658-2.229-0.778-0.764-1.171-1.522-1.171-2.138 0-1.31 1.702-2.98 4.542-4.116 0.345-0.138 0.705-0.268 1.079-0.39 0.392 1.464 0.907 2.995 1.528 4.543-0.629 1.571-1.151 3.126-1.548 4.607-0.267-0.088-0.525-0.18-0.774-0.278zM7.684 8.498c-0.589-3.454-0.198-6.060 0.787-6.714 1.049-0.697 3.369 0.297 5.814 2.787 0.156 0.159 0.313 0.326 0.471 0.498-0.911 1.122-1.812 2.4-2.672 3.792-1.475 0.157-2.887 0.409-4.185 0.746-0.082-0.376-0.154-0.746-0.216-1.108zM21.211 12.329c-0.31-0.615-0.629-1.215-0.954-1.799 1.001 0.145 1.959 0.338 2.86 0.573-0.27 0.993-0.607 2.032-1.004 3.097-0.284-0.619-0.585-1.244-0.902-1.872zM15.695 6.167c0.618 0.768 1.237 1.625 1.845 2.555-0.613-0.033-1.234-0.051-1.86-0.051-0.62 0-1.237 0.017-1.846 0.050 0.609-0.921 1.233-1.778 1.861-2.554zM10.143 12.34c-0.31 0.616-0.605 1.238-0.885 1.86-0.39-1.061-0.724-2.105-0.996-3.112 0.895-0.23 1.849-0.417 2.843-0.56-0.329 0.589-0.651 1.194-0.961 1.812v0zM11.133 21.521c-1.027-0.131-1.996-0.31-2.89-0.533 0.277-1.026 0.618-2.091 1.016-3.175 0.281 0.622 0.577 1.243 0.889 1.861h0c0.318 0.629 0.647 1.246 0.985 1.847zM15.732 25.881c-0.635-0.786-1.268-1.655-1.887-2.59 0.6 0.027 1.213 0.041 1.835 0.041 0.639 0 1.271-0.017 1.893-0.048-0.611 0.952-1.227 1.822-1.841 2.597zM22.126 17.758c0.419 1.096 0.773 2.156 1.053 3.164-0.909 0.238-1.891 0.43-2.925 0.572 0.326-0.592 0.647-1.202 0.963-1.83 0.319-0.635 0.623-1.272 0.91-1.906zM20.056 18.896c-0.49 0.975-0.993 1.905-1.504 2.784-0.931 0.076-1.892 0.116-2.872 0.116-0.976 0-1.925-0.035-2.839-0.103-0.532-0.89-1.046-1.823-1.533-2.788h0c-0.486-0.962-0.933-1.933-1.338-2.898 0.405-0.967 0.851-1.939 1.334-2.899l-0 0c0.484-0.963 0.994-1.892 1.521-2.776 0.933-0.081 1.889-0.123 2.856-0.123h0c0.971 0 1.928 0.043 2.861 0.124 0.519 0.878 1.025 1.804 1.511 2.767 0.492 0.974 0.943 1.939 1.352 2.886-0.407 0.963-0.858 1.938-1.348 2.911zM22.82 1.738c1.050 0.695 1.459 3.496 0.799 7.169-0.042 0.234-0.089 0.473-0.141 0.715-1.301-0.344-2.714-0.6-4.193-0.76-0.862-1.407-1.755-2.687-2.651-3.794 0.241-0.266 0.482-0.519 0.721-0.759 2.315-2.311 4.479-3.223 5.465-2.571zM15.68 12.758c1.547 0 2.8 1.438 2.8 3.212s-1.254 3.212-2.8 3.212-2.8-1.438-2.8-3.212c0-1.774 1.254-3.212 2.8-3.212z"></path>
</svg>
