<!-- Generated by IcoMoon.io -->
<svg version="1.1" xmlns="http://www.w3.org/2000/svg" width="80" height="80" viewBox="0 0 27 32">
<title>scss</title>
<path fill="#cd6799" d="M13.724 19.108c-0.553 0.253-1.159 0.582-2.373 1.245-0.46 0.257-0.941 0.515-1.388 0.757-0.031-0.031-0.063-0.070-0.094-0.102-2.4-2.551-6.84-4.353-6.651-7.779 0.070-1.248 0.501-4.524 8.526-8.503 6.604-3.237 11.859-2.341 12.767-0.351 1.304 2.836-2.817 8.113-9.637 8.878-0.755 0.152-1.534 0.134-2.281-0.054s-1.441-0.54-2.033-1.031c-0.361-0.39-0.415-0.413-0.549-0.335-0.22 0.114-0.078 0.468 0 0.67 0.26 0.469 0.612 0.88 1.035 1.211s0.908 0.574 1.427 0.715c2.684 0.577 5.482 0.301 8-0.788 4.134-1.591 7.361-6.015 6.415-9.724-0.949-3.76-7.224-5-13.161-2.902-3.718 1.246-7.153 3.208-10.11 5.774-3.271 3.043-3.789 5.688-3.577 6.795 0.761 3.932 6.211 6.491 8.396 8.387-0.115 0.063-0.212 0.114-0.298 0.164-1.090 0.539-5.247 2.7-6.283 4.985-1.177 2.59 0.189 4.447 1.090 4.696 1.359 0.324 2.785 0.217 4.081-0.304s2.394-1.433 3.143-2.606c0.636-0.973 1.027-2.084 1.139-3.239s-0.058-2.32-0.496-3.396c0.258-0.205 0.534-0.388 0.823-0.546 0.557-0.327 1.087-0.65 1.557-0.899 1.611-0.75 3.368-1.137 5.147-1.131 3.733 0.437 4.471 2.754 4.329 3.729-0.066 0.346-0.206 0.674-0.41 0.962s-0.468 0.529-0.774 0.707c-0.259 0.164-0.345 0.218-0.322 0.335 0.031 0.172 0.156 0.164 0.376 0.133 0.561-0.176 1.055-0.517 1.418-0.978s0.576-1.020 0.614-1.604c0.115-2.288-2.078-4.798-5.961-4.775-1.163 0.002-2.314 0.23-3.388 0.672-0.173 0.071-0.34 0.147-0.503 0.229l0.006 0.003zM8.175 28.076c-1.24 1.342-2.965 1.849-3.71 1.42-0.805-0.458-0.487-2.442 1.035-3.862 0.901-0.808 1.875-1.531 2.91-2.161 0.181-0.114 0.447-0.265 0.768-0.458 0.055-0.031 0.086-0.047 0.086-0.047l0.189-0.114c0.271 0.905 0.296 1.865 0.072 2.783s-0.69 1.759-1.349 2.439v0z"></path>
</svg>
