<!-- Generated by IcoMoon.io -->
<svg version="1.1" xmlns="http://www.w3.org/2000/svg" width="80" height="80" viewBox="0 0 31 32">
<title>xd</title>
<path fill="#ff2bc2" d="M0 0.003v31.993h31.36v-31.993h-31.36zM1.307 1.371h28.747v29.259h-28.747v-29.259z"></path>
<path fill="#ff2bc2" d="M22.775 13.443c-0.196-0.096-0.444-0.137-0.758-0.137-1.646 0-2.744 1.326-2.744 3.528 0 2.516 1.124 3.527 2.587 3.527 0.314 0 0.653-0.041 0.902-0.15v-6.768h0.013zM16.921 16.943c0-3.186 1.96-5.674 5.174-5.674 0.274 0 0.418 0 0.679 0.027v-3.555c0-0.082 0.065-0.137 0.131-0.137h2.104c0.105 0 0.131 0.041 0.131 0.109v12.497c0 0.369 0 0.834 0.065 1.34 0 0.096 0 0.109-0.078 0.15-1.098 0.547-2.247 0.793-3.345 0.793-2.835 0-4.861-1.832-4.861-5.551v0zM12.466 14.728l3.659 7.424c0.065 0.109 0.026 0.219-0.078 0.219h-2.274c-0.144 0-0.209-0.041-0.274-0.178-0.836-1.805-1.686-3.678-2.561-5.619h-0.026c-0.784 1.832-1.646 3.828-2.483 5.633-0.065 0.109-0.131 0.15-0.235 0.15h-2.169c-0.131 0-0.144-0.109-0.078-0.191l3.58-7.205-3.463-7.164c-0.078-0.109 0-0.205 0.091-0.205h2.247c0.131 0 0.196 0.027 0.235 0.15 0.823 1.818 1.659 3.61 2.444 5.442h0.026c0.758-1.805 1.594-3.623 2.391-5.414 0.065-0.109 0.105-0.178 0.235-0.178h2.104c0.105 0 0.144 0.082 0.078 0.205l-3.45 6.932z"></path>
</svg>
