<?xml version="1.0" encoding="utf-8"?>
<svg version="1.1" xmlns="http://www.w3.org/2000/svg" xmlns:xlink="http://www.w3.org/1999/xlink" width="1400" height="32" viewBox="0 0 1400 32">
<svg id="icon-css" width="28" height="32" viewBox="0 0 28 32" x="0" y="0">
<path fill="#1b73ba" d="M2.347 28.648l-2.347-28.594 28.033 0.057-2.482 28.537-11.429 3.299-11.775-3.299z"></path>
<path fill="#1c88c7" d="M14.122 29.185v-26.408l11.544 0.038-2.059 23.627-9.486 2.742z"></path>
<path fill="#fff" d="M22.8 6.152h-17.759l0.481 3.452h8.427l-8.292 3.548 0.481 3.337h12.218l-0.443 4.66-4.137 0.806-3.752-0.959-0.289-2.647h-3.444l0.462 5.504 7.388 2.052 7.081-2.244 0.904-10.759h-7.485l8.158-3.375 0-3.375z"></path>
</svg>
<svg id="icon-cpp" width="28" height="32" viewBox="0 0 28 32" x="57" y="0">
<path fill="#5c8dbc" d="M28.295 9.35c-0-0.535-0.114-1.007-0.346-1.413-0.227-0.399-0.567-0.733-1.024-0.997-3.767-2.172-7.538-4.338-11.303-6.512-1.015-0.586-2-0.565-3.007 0.030-1.499 0.884-9.006 5.185-11.243 6.481-0.921 0.533-1.369 1.349-1.37 2.41-0.001 4.368 0 8.736-0.001 13.104 0 0.523 0.11 0.986 0.331 1.386 0.227 0.411 0.572 0.754 1.039 1.025 2.237 1.296 9.745 5.596 11.244 6.481 1.008 0.595 1.992 0.616 3.008 0.030 3.766-2.174 7.537-4.34 11.304-6.512 0.467-0.27 0.812-0.614 1.039-1.024 0.221-0.399 0.331-0.863 0.331-1.386 0 0 0-8.734-0.001-13.102z"></path>
<path fill="#1a4674" d="M14.191 15.859l-13.861 7.981c0.227 0.411 0.572 0.754 1.039 1.025 2.237 1.296 9.745 5.596 11.244 6.481 1.008 0.595 1.992 0.616 3.008 0.030 3.766-2.174 7.537-4.34 11.304-6.512 0.467-0.27 0.812-0.614 1.039-1.024l-13.774-7.979z"></path>
<path fill="#1a4674" d="M10.086 18.223c0.807 1.408 2.323 2.358 4.062 2.358 1.75 0 3.275-0.962 4.077-2.385l-4.034-2.337-4.105 2.364z"></path>
<path fill="#1b598e" d="M28.295 9.35c-0-0.535-0.114-1.007-0.346-1.413l-13.757 7.921 13.774 7.979c0.221-0.399 0.331-0.863 0.331-1.386 0 0 0-8.734-0.001-13.102z"></path>
<path fill="#fff" d="M27.537 16.429h-1.076v1.077h-1.077v-1.077h-1.076v-1.076h1.076v-1.076h1.077v1.076h1.076v1.076z"></path>
<path fill="#fff" d="M23.61 16.429h-1.076v1.077h-1.076v-1.077h-1.076v-1.076h1.076v-1.076h1.076v1.076h1.076v1.076z"></path>
<path fill="#fff" d="M18.225 18.195c-0.802 1.423-2.327 2.385-4.077 2.385-1.739 0-3.255-0.95-4.062-2.358-0.392-0.684-0.617-1.476-0.617-2.321 0-2.584 2.095-4.679 4.679-4.679 1.728 0 3.236 0.938 4.047 2.332l4.090-2.355c-1.626-2.806-4.661-4.694-8.137-4.694-5.19 0-9.397 4.207-9.397 9.397 0 1.703 0.453 3.299 1.245 4.676 1.621 2.821 4.665 4.72 8.152 4.72 3.494 0 6.542-1.907 8.161-4.736l-4.084-2.366z"></path>
</svg>
<svg id="icon-html" width="32" height="32" viewBox="0 0 32 32" x="114" y="0">
<path fill="#fc490b" d="M2.015 1.059l2.077 26.57c0.031 0.399 0.301 0.739 0.683 0.86l10.928 3.465c0.193 0.061 0.401 0.061 0.594 0l10.928-3.465c0.381-0.121 0.652-0.461 0.683-0.86l2.077-26.57c0.045-0.571-0.407-1.059-0.98-1.059h-26.011c-0.573 0-1.024 0.488-0.98 1.059zM24.659 9.303h-13.535l0.408 3.767h12.832l-0.839 10.739-7.525 2.386-7.525-2.386-0.439-5.61h3.95v2.752l4.12 1.106 4.095-1.106 0.318-4.386h-12.61l-0.837-10.711h17.857l-0.27 3.449z"></path>
</svg>
<svg id="icon-mongo" width="32" height="32" viewBox="0 0 32 32" x="171" y="0">
<path fill="#000" d="M15.874 0c-7.97 0-14.431 2.265-14.431 5.059s6.461 5.059 14.431 5.059c2.735 0 5.292-0.267 7.471-0.73 0.396-0.465 0.838-0.921 1.335-1.357-0.015 0.012 0.077-0.081 0.108-0.181 0.051-0.16 0.080-0.303 0.080-0.303 0.064-0.336 0.247-0.638 0.515-0.851s0.602-0.323 0.944-0.31c0.263 0.010 0.519 0.093 0.738 0.24s0.394 0.351 0.504 0.591c0 0 0.149 0.306 0.32 0.644 1.526-0.802 2.415-1.766 2.415-2.802-0.006-0.103-0.020-0.206-0.044-0.309-0.023-0.13-0.060-0.26-0.111-0.39-0.993-2.498-7.082-4.358-14.276-4.361zM24.865 7.871c-0.111 0.094-0.16 0.138-0.177 0.153 0.058-0.051 0.117-0.102 0.177-0.153zM1.443 7.935v4.366c0.024 2.788 6.477 5.043 14.43 5.043 1.329 0 2.615-0.064 3.838-0.182 0.133-0.948 0.372-1.888 0.745-2.786 0.407-0.978 0.918-2.131 1.655-3.302-1.913 0.308-4.017 0.475-6.237 0.475-4.12 0-7.851-0.572-10.676-1.562-1.413-0.495-2.604-1.088-3.531-1.856-0.076-0.063-0.15-0.129-0.223-0.196zM30.305 7.935c-0.073 0.067-0.147 0.133-0.223 0.196-0.426 0.353-0.909 0.669-1.443 0.956 0.445 0.526 1.071 1.108 1.666 1.904v-3.056zM26.168 10.558c-1.554 1.52-2.404 3.306-3.075 4.919-0.163 0.391-0.289 0.817-0.383 1.265 0.732-0.138 1.424-0.299 2.074-0.478l0.027-1.095c0.010-0.368 0.16-0.717 0.421-0.977s0.611-0.408 0.978-0.416 0.723 0.127 0.994 0.375c0.271 0.248 0.436 0.591 0.461 0.958l0.006 0.091c0.51-0.253 0.955-0.524 1.327-0.808-0.233-0.497-0.491-0.97-0.784-1.41-0.439-0.661-1.275-1.363-2.045-2.424zM1.443 15.163v4.379c0.024 2.788 6.477 5.043 14.43 5.043 1.598 0 3.134-0.092 4.571-0.26-0.008-0.022-0.016-0.044-0.024-0.067-0.532-1.591-0.902-3.592-0.834-5.644-1.19 0.106-2.433 0.161-3.713 0.161-4.12 0-7.851-0.572-10.676-1.562-1.413-0.495-2.604-1.088-3.531-1.856-0.076-0.063-0.149-0.128-0.222-0.194zM29.559 15.752c-0.529 0.367-1.126 0.69-1.786 0.981l0.363 5.461c1.373-0.774 2.168-1.688 2.168-2.667v0.762c0-0.009 0.001-0.017 0.002-0.026v-1.009c-0.054-1.070-0.264-2.118-0.621-3.152-0.041-0.118-0.083-0.234-0.125-0.35zM24.747 17.756c-0.707 0.182-1.454 0.342-2.236 0.478-0.117 1.816 0.162 3.751 0.618 5.115 0.054 0.16 0.129 0.33 0.221 0.506 0.434-0.092 0.852-0.193 1.254-0.3l0.143-5.798zM1.443 22.404v4.324c-0.001 0.004-0.001 0.007-0.002 0.011 0 2.794 6.461 5.059 14.431 5.059 3.325 0 6.385-0.395 8.825-1.058-0.002-0.038-0.003-0.071-0.005-0.11-0.016-0.287-0.057-0.584-0.091-0.807-0.691-0.568-2.432-2.093-3.547-4.128-1.622 0.21-3.364 0.321-5.183 0.321-4.12 0-7.851-0.572-10.676-1.562-1.413-0.495-2.604-1.088-3.531-1.856-0.076-0.063-0.149-0.128-0.222-0.194zM29.929 22.72c-0.495 0.388-1.060 0.731-1.689 1.038l0.131 1.972c0.356-0.465 0.692-0.945 0.891-1.357 0.293-0.607 0.533-1.149 0.666-1.653zM24.566 25.042c-0.121 0.030-0.242 0.061-0.365 0.090 0.114 0.147 0.232 0.294 0.352 0.439l0.013-0.529z"></path>
<path fill="#99b000" d="M26.271 7.816c0 0-0.168 0.88-0.485 1.148-2.179 1.843-3.246 4.12-4.012 5.962-1.163 2.798-0.804 6.473 0 8.877 0.828 2.474 4.006 5.14 4.123 5.237l0.342-13.837 0.919 13.814-1.252 0.034c0.243 0.664 0.243 2.5 0.243 2.5l0.655 0.25c0.014-1.2 0.014-2.232 0.373-2.811l0.109-0.108c0 0 1.285-1.105 1.896-1.855 0.497-0.611 1.024-1.322 1.367-2.032 0.318-0.658 0.623-1.321 0.794-2.032 0.288-1.2 0.447-2.432 0.397-3.666-0.051-1.253-0.294-2.476-0.706-3.666-0.418-1.207-0.924-2.382-1.631-3.445-0.648-0.974-1.598-1.722-2.249-2.694-0.351-0.525-0.882-1.678-0.882-1.678v0z"></path>
</svg>
<svg id="icon-scss" width="27" height="32" viewBox="0 0 27 32" x="228" y="0">
<path fill="#cd6799" d="M13.724 19.108c-0.553 0.253-1.159 0.582-2.373 1.245-0.46 0.257-0.941 0.515-1.388 0.757-0.031-0.031-0.063-0.070-0.094-0.102-2.4-2.551-6.84-4.353-6.651-7.779 0.070-1.248 0.501-4.524 8.526-8.503 6.604-3.237 11.859-2.341 12.767-0.351 1.304 2.836-2.817 8.113-9.637 8.878-0.755 0.152-1.534 0.134-2.281-0.054s-1.441-0.54-2.033-1.031c-0.361-0.39-0.415-0.413-0.549-0.335-0.22 0.114-0.078 0.468 0 0.67 0.26 0.469 0.612 0.88 1.035 1.211s0.908 0.574 1.427 0.715c2.684 0.577 5.482 0.301 8-0.788 4.134-1.591 7.361-6.015 6.415-9.724-0.949-3.76-7.224-5-13.161-2.902-3.718 1.246-7.153 3.208-10.11 5.774-3.271 3.043-3.789 5.688-3.577 6.795 0.761 3.932 6.211 6.491 8.396 8.387-0.115 0.063-0.212 0.114-0.298 0.164-1.090 0.539-5.247 2.7-6.283 4.985-1.177 2.59 0.189 4.447 1.090 4.696 1.359 0.324 2.785 0.217 4.081-0.304s2.394-1.433 3.143-2.606c0.636-0.973 1.027-2.084 1.139-3.239s-0.058-2.32-0.496-3.396c0.258-0.205 0.534-0.388 0.823-0.546 0.557-0.327 1.087-0.65 1.557-0.899 1.611-0.75 3.368-1.137 5.147-1.131 3.733 0.437 4.471 2.754 4.329 3.729-0.066 0.346-0.206 0.674-0.41 0.962s-0.468 0.529-0.774 0.707c-0.259 0.164-0.345 0.218-0.322 0.335 0.031 0.172 0.156 0.164 0.376 0.133 0.561-0.176 1.055-0.517 1.418-0.978s0.576-1.020 0.614-1.604c0.115-2.288-2.078-4.798-5.961-4.775-1.163 0.002-2.314 0.23-3.388 0.672-0.173 0.071-0.34 0.147-0.503 0.229l0.006 0.003zM8.175 28.076c-1.24 1.342-2.965 1.849-3.71 1.42-0.805-0.458-0.487-2.442 1.035-3.862 0.901-0.808 1.875-1.531 2.91-2.161 0.181-0.114 0.447-0.265 0.768-0.458 0.055-0.031 0.086-0.047 0.086-0.047l0.189-0.114c0.271 0.905 0.296 1.865 0.072 2.783s-0.69 1.759-1.349 2.439v0z"></path>
</svg>
<svg id="icon-xd" width="31" height="32" viewBox="0 0 31 32" x="285" y="0">
<path fill="#ff2bc2" d="M0 0.003v31.993h31.36v-31.993h-31.36zM1.307 1.371h28.747v29.259h-28.747v-29.259z"></path>
<path fill="#ff2bc2" d="M22.775 13.443c-0.196-0.096-0.444-0.137-0.758-0.137-1.646 0-2.744 1.326-2.744 3.528 0 2.516 1.124 3.527 2.587 3.527 0.314 0 0.653-0.041 0.902-0.15v-6.768h0.013zM16.921 16.943c0-3.186 1.96-5.674 5.174-5.674 0.274 0 0.418 0 0.679 0.027v-3.555c0-0.082 0.065-0.137 0.131-0.137h2.104c0.105 0 0.131 0.041 0.131 0.109v12.497c0 0.369 0 0.834 0.065 1.34 0 0.096 0 0.109-0.078 0.15-1.098 0.547-2.247 0.793-3.345 0.793-2.835 0-4.861-1.832-4.861-5.551v0zM12.466 14.728l3.659 7.424c0.065 0.109 0.026 0.219-0.078 0.219h-2.274c-0.144 0-0.209-0.041-0.274-0.178-0.836-1.805-1.686-3.678-2.561-5.619h-0.026c-0.784 1.832-1.646 3.828-2.483 5.633-0.065 0.109-0.131 0.15-0.235 0.15h-2.169c-0.131 0-0.144-0.109-0.078-0.191l3.58-7.205-3.463-7.164c-0.078-0.109 0-0.205 0.091-0.205h2.247c0.131 0 0.196 0.027 0.235 0.15 0.823 1.818 1.659 3.61 2.444 5.442h0.026c0.758-1.805 1.594-3.623 2.391-5.414 0.065-0.109 0.105-0.178 0.235-0.178h2.104c0.105 0 0.144 0.082 0.078 0.205l-3.45 6.932z"></path>
</svg>
<svg id="icon-figma" width="20" height="32" viewBox="0 0 20 32" x="342" y="0">
<path fill="#0acf83" d="M5.121 32c2.826 0 5.119-2.389 5.119-5.333v-5.333h-5.119c-2.826 0-5.119 2.389-5.119 5.333s2.293 5.333 5.119 5.333z"></path>
<path fill="#a259ff" d="M0.002 16c0-2.944 2.293-5.333 5.119-5.333h5.119v10.667h-5.119c-2.826 0-5.119-2.389-5.119-5.333z"></path>
<path fill="#f24e1e" d="M0.002 5.333c0-2.944 2.293-5.333 5.119-5.333h5.119v10.667h-5.119c-2.826 0-5.119-2.389-5.119-5.333z"></path>
<path fill="#ff7262" d="M10.24 0h5.119c2.826 0 5.119 2.389 5.119 5.333s-2.293 5.333-5.119 5.333h-5.119v-10.667z"></path>
<path fill="#1abcfe" d="M20.478 16c0 2.944-2.293 5.333-5.119 5.333s-5.119-2.389-5.119-5.333c0-2.944 2.293-5.333 5.119-5.333s5.119 2.389 5.119 5.333z"></path>
</svg>
<svg id="icon-python" width="31" height="32" viewBox="0 0 31 32" x="399" y="0">
<path fill="#3c78aa" d="M12.297 0c-2.472 0-4.474 2.047-4.474 4.575v2.688h6.711c0.61 0 1.112 0.913 1.112 1.538h-11.172c-2.472 0-4.474 2.047-4.474 4.575v6.050c0 2.528 2.002 4.575 4.474 4.575h1.846v-4.288c0-2.528 1.99-4.575 4.462-4.575h8.214c2.472 0 4.474-2.035 4.474-4.563v-6c0-2.528-2.002-4.575-4.474-4.575l-6.699 0zM11.172 2.575c0.626 0 1.125 0.194 1.125 1.138s-0.499 1.425-1.125 1.425c-0.61 0-1.112-0.481-1.112-1.425s0.502-1.138 1.112-1.138z"></path>
<path fill="#fdd835" d="M24.97 8v4.288c0 2.528-1.986 4.575-4.459 4.575h-8.214c-2.472 0-4.474 2.031-4.474 4.559v6c-0.001 1.214 0.471 2.378 1.31 3.237s1.977 1.341 3.164 1.341h6.698c1.187-0 2.325-0.483 3.164-1.341s1.31-2.023 1.31-3.237v-2.688h-6.714c-0.61 0-1.109-0.91-1.109-1.534h11.172c1.187-0 2.325-0.483 3.164-1.341s1.31-2.023 1.31-3.237v-6.047c-0-2.527-2.003-4.575-4.474-4.575l-1.849-0zM9.889 15.222l-0.006 0.006c0.019-0.004 0.039-0.003 0.058-0.006h-0.052zM20.12 26.863c0.61 0 1.112 0.481 1.112 1.425-0.001 0.627-0.499 1.135-1.112 1.134-0.626 0-1.125-0.19-1.125-1.134s0.499-1.425 1.125-1.425z"></path>
</svg>
<svg id="icon-firebase" width="24" height="32" viewBox="0 0 24 32" x="456" y="0">
<path fill="#ffa712" d="M0.212 25.873l3.969-25.873 5.098 8.066 2.021-3.967 12.318 21.82-23.406-0.046z"></path>
<path fill="#fcca3f" d="M11.319 31.914l12.236-6.026-4.218-20.085-19.188 20.040 11.17 6.072z"></path>
<path fill="#f6820c" d="M9.187 7.979l-8.89 17.805 11.973-12.59-3.083-5.215z"></path>
</svg>
<svg id="icon-android" width="28" height="32" viewBox="0 0 28 32" x="513" y="0">
<path fill="#073042" d="M11.868 8.414h-4.453c-0.897 0-1.631 0.75-1.631 1.668s0.68 1.668 1.577 1.668h4.545l-0.038-3.335v0z"></path>
<path fill="#4285f4" d="M22.004 23.269h-14.591c-0.897 0-1.631-0.751-1.631-1.668v-11.525c0 0-0.005 1.673 1.738 1.673h12.101c0 0 2.382-0.21 2.382 1.607v9.913z"></path>
<path fill="#3870b2" d="M15.196 17.364c0.349-0.275 0.575-0.706 0.575-1.19 0-0.811-0.631-1.472-1.417-1.501 0.017-0.001 0.033-0.003 0.050-0.003 0.088 0 0.174 0.009 0.258 0.025v-0.954c0-0.077-0.030-0.15-0.083-0.204s-0.125-0.085-0.2-0.085c-0.075 0-0.147 0.030-0.2 0.085s-0.083 0.128-0.083 0.204v0.946c-0.715 0.102-1.268 0.729-1.268 1.488 0 0.506 0.246 0.953 0.621 1.226l-2.689 5.869h1.757l1.241-2.718c0.23-0.499 0.923-0.501 1.156-0.004l1.28 2.721h1.771l-2.771-5.904zM14.3 17.101c-0.5 0-0.906-0.415-0.906-0.926s0.405-0.926 0.906-0.926c0.5 0 0.906 0.415 0.906 0.926s-0.405 0.926-0.906 0.926v0z"></path>
<path fill="#073042" d="M13.814 15.248c0.5 0 0.906 0.415 0.906 0.926s-0.406 0.926-0.906 0.926c-0.5 0-0.906-0.415-0.906-0.926s0.405-0.926 0.906-0.926v0zM14.176 14.695v-0.954c-0-0.077-0.030-0.15-0.083-0.204s-0.125-0.085-0.2-0.085c-0.075 0-0.147 0.030-0.2 0.085s-0.083 0.128-0.083 0.204v0.946c-0.715 0.102-1.268 0.729-1.268 1.488 0 0.506 0.246 0.953 0.621 1.226l-3.395 7.398c-0.246 0.541 0.14 1.16 0.723 1.16 0.152 0 0.301-0.044 0.429-0.128s0.23-0.203 0.294-0.344l2.259-4.935c0.23-0.499 0.923-0.501 1.156-0.004l2.31 4.909c0.065 0.138 0.167 0.255 0.294 0.336s0.274 0.125 0.424 0.125c0.587 0 0.973-0.627 0.718-1.169l-3.465-7.384c0.349-0.275 0.575-0.706 0.575-1.19 0-0.701-0.472-1.291-1.109-1.456z"></path>
<path fill="#fff" d="M10.903 9.233h6.243v1.169h-6.243v-1.169z"></path>
<path fill="#3ddc84" d="M16.24 10.264c-0.234 0-0.425-0.195-0.425-0.434s0.19-0.434 0.425-0.434c0.234 0 0.425 0.195 0.425 0.434s-0.19 0.434-0.425 0.434zM11.547 10.264c-0.234 0-0.425-0.195-0.425-0.434s0.19-0.434 0.425-0.434c0.234 0 0.425 0.195 0.425 0.434s-0.19 0.434-0.425 0.434zM16.392 7.649l0.849-1.503c0.023-0.041 0.030-0.091 0.018-0.137s-0.042-0.086-0.082-0.11c-0.041-0.024-0.089-0.030-0.134-0.018s-0.084 0.043-0.107 0.084l-0.859 1.522c-0.657-0.307-1.395-0.478-2.182-0.478s-1.525 0.171-2.182 0.478l-0.859-1.522c-0.023-0.041-0.062-0.072-0.107-0.084s-0.093-0.006-0.134 0.018c-0.041 0.024-0.070 0.063-0.082 0.11s-0.006 0.096 0.018 0.137l0.849 1.503c-1.457 0.81-2.454 2.319-2.6 4.101h10.197c-0.146-1.782-1.143-3.291-2.6-4.101z"></path>
<path fill="#073042" d="M20.537 14.95h-0.674c-0.045 0-0.081 0.037-0.081 0.083l-0.016 10.815c0 0.046 0.037 0.083 0.081 0.083l0.69 0.004c0.807 0 1.468-0.675 1.468-1.501v-10.987c0 0.825-0.66 1.502-1.467 1.502l-0 0z"></path>
</svg>
<svg id="icon-java" width="23" height="32" viewBox="0 0 23 32" x="570" y="0">
<path fill="#5382a1" d="M7.419 24.667c-4.457 1.387 2.711 4.252 8.385 1.544-0.929-0.402-1.595-0.867-1.595-0.867-2.531 0.534-3.705 0.575-6.002 0.284-1.896-0.243-0.788-0.96-0.788-0.96zM6.454 22c-5.453 1.851 3.034 3.951 10.654 1.672-0.81-0.292-1.325-0.826-1.325-0.826-3.724 0.733-5.876 0.71-8.601 0.422-2.107-0.223-0.727-1.268-0.727-1.268zM21.707 27.545c0 0 0.904 0.584-0.995 1.036-3.612 0.858-15.033 1.118-18.205 0.034-1.14-0.389 0.998-0.929 1.671-1.043 0.702-0.119 1.103-0.097 1.103-0.097-1.268-0.701-8.198 1.376-3.52 1.971 12.758 1.623 23.256-0.731 19.947-1.902zM8.235 18.005c0 0-5.66 1.308-2.004 1.783 1.544 0.201 4.621 0.156 7.487-0.078 2.343-0.192 4.695-0.601 4.695-0.601s-0.826 0.344-1.424 0.741c-5.748 1.471-16.852 0.787-13.655-0.718 2.704-1.271 4.902-1.127 4.902-1.127zM18.52 23.167c-0.025 0.079-0.108 0.167-0.108 0.166 7.195-2.231 4.55-7.865 1.11-6.438-0.302 0.127-0.46 0.419-0.46 0.419s0.19-0.091 0.616-0.195c1.739-0.428 4.23 2.746-1.158 6.048zM7.991 31.912c5.826 0.324 14.772-0.18 14.984-2.578 0 0-0.407 0.909-4.815 1.631-4.973 0.814-11.105 0.719-14.743 0.197 0-0 0.745 0.536 4.574 0.75z"></path>
<path fill="#e76f00" d="M13.838 15.811c-4.778-6.29 5.226-9.144 5.226-9.144-6.374 4.223-5.196 5.448-3.661 7.913 1.644 2.643-1.936 4.754-1.936 4.754s1.78-1.668 0.37-3.522zM14.928 0c0 0 3.416 3.41-3.239 8.654-5.337 4.207-1.217 6.605-0.002 9.346-3.115-2.805-5.401-5.275-3.867-7.573 2.251-3.374 8.487-5.010 7.109-10.427z"></path>
</svg>
<svg id="icon-javascript" width="31" height="32" viewBox="0 0 31 32" x="627" y="0">
<path fill="#f0db4f" d="M0 0h31.39v32h-31.39v-32z"></path>
<path fill="#323330" d="M28.821 24.368c-0.23-1.46-1.164-2.686-3.93-3.83-0.961-0.45-2.032-0.773-2.351-1.515-0.113-0.432-0.128-0.675-0.057-0.937 0.206-0.849 1.2-1.113 1.987-0.87 0.507 0.173 0.988 0.572 1.277 1.208 1.355-0.894 1.352-0.888 2.298-1.503-0.346-0.548-0.531-0.8-0.758-1.034-0.815-0.928-1.925-1.405-3.7-1.369-0.307 0.040-0.618 0.082-0.925 0.122-0.886 0.228-1.731 0.703-2.226 1.338-1.486 1.719-1.062 4.727 0.746 5.965 1.781 1.363 4.398 1.673 4.732 2.948 0.325 1.56-1.125 2.065-2.566 1.886-1.062-0.225-1.653-0.776-2.292-1.776-1.176 0.694-1.176 0.694-2.384 1.402 0.286 0.639 0.588 0.928 1.068 1.481 2.274 2.351 7.964 2.236 8.984-1.323 0.042-0.122 0.316-0.937 0.095-2.193v0zM17.065 14.707h-2.936c0 2.586-0.012 5.153-0.012 7.738 0 1.646 0.084 3.154-0.179 3.617-0.43 0.909-1.543 0.797-2.050 0.62-0.516-0.259-0.779-0.627-1.083-1.147-0.084-0.149-0.146-0.265-0.167-0.274-0.797 0.496-1.59 0.995-2.387 1.491 0.397 0.83 0.982 1.551 1.731 2.020 1.119 0.684 2.623 0.894 4.195 0.526 1.023-0.304 1.907-0.934 2.369-1.892 0.668-1.256 0.525-2.777 0.519-4.459 0.015-2.744 0-5.487 0-8.24z"></path>
</svg>
<svg id="icon-react" width="31" height="32" viewBox="0 0 31 32" x="684" y="0">
<path fill="#257bc2" d="M25.784 10.372c-0.325-0.128-0.662-0.25-1.010-0.365 0.057-0.267 0.109-0.531 0.156-0.79 0.764-4.254 0.265-7.682-1.442-8.81-1.636-1.082-4.312 0.046-7.014 2.743-0.26 0.259-0.52 0.534-0.781 0.822-0.174-0.19-0.347-0.374-0.52-0.55-2.832-2.884-5.67-4.099-7.375-2.967-1.634 1.085-2.118 4.307-1.431 8.339 0.066 0.389 0.144 0.787 0.232 1.191-0.402 0.131-0.79 0.27-1.161 0.419-3.32 1.328-5.441 3.408-5.441 5.566 0 2.229 2.276 4.465 5.734 5.82 0.273 0.107 0.556 0.208 0.848 0.304-0.095 0.437-0.177 0.866-0.246 1.284-0.656 3.962-0.144 7.108 1.486 8.186 1.684 1.114 4.509-0.031 7.261-2.79 0.217-0.218 0.436-0.449 0.654-0.692 0.283 0.313 0.566 0.609 0.848 0.887 2.665 2.63 5.297 3.692 6.926 2.611 1.682-1.117 2.229-4.496 1.519-8.608-0.054-0.314-0.117-0.635-0.188-0.961 0.198-0.067 0.393-0.137 0.583-0.209 3.595-1.366 5.934-3.575 5.934-5.833 0-2.166-2.189-4.261-5.576-5.598zM25.004 20.345c-0.171 0.065-0.347 0.128-0.527 0.189-0.397-1.441-0.933-2.973-1.588-4.556 0.626-1.545 1.14-3.058 1.526-4.49 0.321 0.106 0.632 0.219 0.932 0.337 2.902 1.146 4.672 2.84 4.672 4.145 0 1.39-1.912 3.195-5.016 4.375zM23.716 23.272c0.314 1.818 0.359 3.462 0.151 4.747-0.187 1.155-0.562 1.924-1.027 2.233-0.988 0.656-3.102-0.197-5.381-2.446-0.261-0.258-0.524-0.533-0.788-0.825 0.884-1.108 1.767-2.397 2.629-3.828 1.516-0.154 2.948-0.407 4.247-0.751 0.064 0.296 0.121 0.586 0.17 0.87zM10.691 30.138c-0.966 0.391-1.735 0.402-2.2 0.095-0.989-0.654-1.4-3.18-0.84-6.568 0.064-0.388 0.141-0.787 0.229-1.194 1.285 0.326 2.706 0.56 4.226 0.702 0.868 1.4 1.776 2.687 2.692 3.814-0.2 0.222-0.399 0.432-0.598 0.631-1.217 1.22-2.436 2.085-3.511 2.52zM6.168 20.336c-1.529-0.599-2.792-1.378-3.658-2.229-0.778-0.764-1.171-1.522-1.171-2.138 0-1.31 1.702-2.98 4.542-4.116 0.345-0.138 0.705-0.268 1.079-0.39 0.392 1.464 0.907 2.995 1.528 4.543-0.629 1.571-1.151 3.126-1.548 4.607-0.267-0.088-0.525-0.18-0.774-0.278zM7.684 8.498c-0.589-3.454-0.198-6.060 0.787-6.714 1.049-0.697 3.369 0.297 5.814 2.787 0.156 0.159 0.313 0.326 0.471 0.498-0.911 1.122-1.812 2.4-2.672 3.792-1.475 0.157-2.887 0.409-4.185 0.746-0.082-0.376-0.154-0.746-0.216-1.108zM21.211 12.329c-0.31-0.615-0.629-1.215-0.954-1.799 1.001 0.145 1.959 0.338 2.86 0.573-0.27 0.993-0.607 2.032-1.004 3.097-0.284-0.619-0.585-1.244-0.902-1.872zM15.695 6.167c0.618 0.768 1.237 1.625 1.845 2.555-0.613-0.033-1.234-0.051-1.86-0.051-0.62 0-1.237 0.017-1.846 0.050 0.609-0.921 1.233-1.778 1.861-2.554zM10.143 12.34c-0.31 0.616-0.605 1.238-0.885 1.86-0.39-1.061-0.724-2.105-0.996-3.112 0.895-0.23 1.849-0.417 2.843-0.56-0.329 0.589-0.651 1.194-0.961 1.812v0zM11.133 21.521c-1.027-0.131-1.996-0.31-2.89-0.533 0.277-1.026 0.618-2.091 1.016-3.175 0.281 0.622 0.577 1.243 0.889 1.861h0c0.318 0.629 0.647 1.246 0.985 1.847zM15.732 25.881c-0.635-0.786-1.268-1.655-1.887-2.59 0.6 0.027 1.213 0.041 1.835 0.041 0.639 0 1.271-0.017 1.893-0.048-0.611 0.952-1.227 1.822-1.841 2.597zM22.126 17.758c0.419 1.096 0.773 2.156 1.053 3.164-0.909 0.238-1.891 0.43-2.925 0.572 0.326-0.592 0.647-1.202 0.963-1.83 0.319-0.635 0.623-1.272 0.91-1.906zM20.056 18.896c-0.49 0.975-0.993 1.905-1.504 2.784-0.931 0.076-1.892 0.116-2.872 0.116-0.976 0-1.925-0.035-2.839-0.103-0.532-0.89-1.046-1.823-1.533-2.788h0c-0.486-0.962-0.933-1.933-1.338-2.898 0.405-0.967 0.851-1.939 1.334-2.899l-0 0c0.484-0.963 0.994-1.892 1.521-2.776 0.933-0.081 1.889-0.123 2.856-0.123h0c0.971 0 1.928 0.043 2.861 0.124 0.519 0.878 1.025 1.804 1.511 2.767 0.492 0.974 0.943 1.939 1.352 2.886-0.407 0.963-0.858 1.938-1.348 2.911zM22.82 1.738c1.050 0.695 1.459 3.496 0.799 7.169-0.042 0.234-0.089 0.473-0.141 0.715-1.301-0.344-2.714-0.6-4.193-0.76-0.862-1.407-1.755-2.687-2.651-3.794 0.241-0.266 0.482-0.519 0.721-0.759 2.315-2.311 4.479-3.223 5.465-2.571zM15.68 12.758c1.547 0 2.8 1.438 2.8 3.212s-1.254 3.212-2.8 3.212-2.8-1.438-2.8-3.212c0-1.774 1.254-3.212 2.8-3.212z"></path>
</svg>
<svg id="icon-illustrator" width="31" height="32" viewBox="0 0 31 32" x="741" y="0">
<path fill="#ff7c00" d="M0 0v32h31.36v-32h-31.36zM1.307 1.368h28.747v29.265h-28.747v-29.265zM10.884 18.119l-1.032 4.103c-0.026 0.109-0.065 0.137-0.196 0.137h-1.921c-0.131 0-0.157-0.041-0.131-0.205l3.711-13.593c0.065-0.246 0.104-0.465 0.131-1.135 0-0.096 0.039-0.137 0.104-0.137h2.744c0.092 0 0.131 0.027 0.157 0.137l4.155 14.755c0.026 0.109 0 0.178-0.104 0.178h-2.169c-0.104 0-0.17-0.027-0.196-0.123l-1.084-4.116h-4.168zM14.517 15.904l-1.555-6.427h-0.026c-0.274 1.6-0.967 4.308-1.516 6.427h3.096zM20.397 8.3c0-0.875 0.588-1.395 1.333-1.395 0.797 0 1.333 0.561 1.333 1.395 0 0.903-0.562 1.395-1.359 1.395-0.758 0-1.307-0.492-1.307-1.395v0zM20.554 11.405c0-0.109 0.039-0.164 0.157-0.164h2.052c0.104 0 0.157 0.041 0.157 0.164v10.79c0 0.109-0.026 0.164-0.157 0.164h-2.025c-0.131 0-0.17-0.068-0.17-0.178v-10.775l-0.013-0.001z"></path>
</svg>
</svg>
